# xmcd
#
# Track frame offsets:
#	182
#	16730
#	40652
#	63355
#	81412
#	101992
#	121035
#	148395
#	169937
#	183750
#
# Disc length: 2677 seconds
#
# Revision: 2
# Processed by: cddbd v1.5.2PL0 Copyright (c) Steve Scherf et al.
# Submitted via: audiograbber 1.83.01
#
DISCID=820a730a
DTITLE=Rapmasters 15 - The Best Of The Bad
DYEAR=1990
DGENRE=Rap
TTITLE0=De La Soul - Me Myself And I
TTITLE1=Kid 'N Play - Rollin' With Kid 'N Play
TTITLE2=Twin Hype - Do It To The Crowd
TTITLE3=Special Ed - I Got It Made (Businesslike Version)
TTITLE4=King Sun - Do I Love You
TTITLE5=Rob Base And D.J. E-Z Rock - Joy And Pain
TTITLE6=Chubb Rock - Ya Bad Chubbs
TTITLE7=Salt-N-Pepa - Get Up Everybody (Get Up)
TTITLE8=Sweet Tee - Show And Proove
TTITLE9=Run-D.M.C. - Pause
EXTD=
EXTT0=
EXTT1=
EXTT2=
EXTT3=
EXTT4=
EXTT5=
EXTT6=
EXTT7=
EXTT8=
EXTT9=
PLAYORDER=
